<svg version="1.1" xmlns="http://www.w3.org/2000/svg" xmlns:xlink="http://www.w3.org/1999/xlink" viewBox="0 0 172 172"><g fill="none" fill-rule="nonzero" stroke="none" stroke-width="1" stroke-linecap="butt" stroke-linejoin="miter" stroke-miterlimit="10" stroke-dasharray="" stroke-dashoffset="0" font-family="none" font-weight="none" font-size="none" text-anchor="none" style="mix-blend-mode: normal"><path d="M0,172v-172h172v172z" fill="none"></path><g fill="#d0006e"><path d="M37.41,0c-0.76594,0.08063 -1.49156,0.43 -2.0425,0.9675l-34.4,34.4c-0.67187,0.645 -1.04812,1.54531 -1.04812,2.4725c0,0.92719 0.37625,1.8275 1.04813,2.4725l34.4,34.4c1.37063,1.37063 3.57438,1.37063 4.945,0c1.37063,-1.37062 1.37063,-3.57437 0,-4.945l-28.4875,-28.4875h101.695c28.39344,0 51.6,23.20656 51.6,51.6c0,28.21875 -22.91094,51.30438 -51.0625,51.6c-0.17469,0 -0.36281,0 -0.5375,0h-58.48v2.365c-0.20156,0.67188 -0.20156,1.37063 0,2.0425v2.4725h58.48c0.1075,0 0.215,0 0.3225,0c0.04031,0 0.06719,0 0.1075,0c0.18813,0 0.34938,-0.1075 0.5375,-0.1075c31.69906,-0.5375 57.5125,-26.5525 57.5125,-58.3725c0,-31.82 -25.81344,-57.835 -57.5125,-58.3725c-0.13437,-0.04031 -0.28219,-0.08062 -0.43,-0.1075c-0.18812,0 -0.34937,0 -0.5375,0h-101.695l28.4875,-28.4875c1.11531,-1.03469 1.41094,-2.67406 0.73906,-4.03125c-0.65844,-1.37062 -2.15,-2.12312 -3.64156,-1.88125zM0,144.48v6.88h6.88v-6.88zM13.76,144.48v6.88h6.88v-6.88zM27.52,144.48v6.88h6.88v-6.88zM41.28,144.48v6.88h6.88v-6.88z"></path></g></g></svg>