<svg xmlns="http://www.w3.org/2000/svg" xmlns:xlink="http://www.w3.org/1999/xlink" width="500" zoomAndPan="magnify" viewBox="0 0 375 374.999991" height="500" preserveAspectRatio="xMidYMid meet" version="1.0"><defs><g/></defs><rect x="-37.5" width="450" fill="#ffffff" y="-37.499999" height="449.999989" fill-opacity="1"/><rect x="-37.5" width="450" fill="#ffffff" y="-37.499999" height="449.999989" fill-opacity="1"/><rect x="-37.5" width="450" fill="#fefcad" y="-37.499999" height="449.999989" fill-opacity="1"/><g fill="#e76f51" fill-opacity="1"><g transform="translate(100.003635, 284.732438)"><g><path d="M 69.28125 -97.375 C 71.332031 -84.289062 78.96875 -76.660156 92.1875 -74.484375 C 86.019531 -73.328125 80.945312 -70.757812 76.96875 -66.78125 C 73 -62.800781 70.4375 -57.796875 69.28125 -51.765625 C 68 -57.921875 65.367188 -63.019531 61.390625 -67.0625 C 57.410156 -71.101562 52.34375 -73.578125 46.1875 -74.484375 C 59.269531 -76.785156 66.96875 -84.414062 69.28125 -97.375 Z M 76.78125 -193.421875 L 70.4375 -193.421875 L 53.875 -215.15625 L 66.96875 -215.15625 Z M 34.4375 -35.40625 L -2.703125 -35.21875 C 0.503906 -36.5 3.296875 -37.941406 5.671875 -39.546875 C 8.046875 -41.148438 10.453125 -43.203125 12.890625 -45.703125 C 15.328125 -48.203125 17.539062 -51.375 19.53125 -55.21875 C 21.519531 -59.070312 23.347656 -63.566406 25.015625 -68.703125 L 35.796875 -103.921875 C 37.972656 -103.796875 40.148438 -103.796875 42.328125 -103.921875 L 31.5625 -68.515625 C 28.738281 -61.203125 27.390625 -55.265625 27.515625 -50.703125 C 27.640625 -46.148438 29.945312 -41.050781 34.4375 -35.40625 Z M 73.515625 -124.703125 C 70.304688 -119.960938 66.101562 -116.210938 60.90625 -113.453125 C 55.707031 -110.691406 50.347656 -109.179688 44.828125 -108.921875 C 39.316406 -108.671875 33.960938 -109.21875 28.765625 -110.5625 C 23.566406 -111.90625 19.039062 -114.210938 15.1875 -117.484375 C 11.34375 -120.765625 8.84375 -124.648438 7.6875 -129.140625 C 5.894531 -135.804688 5.894531 -142.441406 7.6875 -149.046875 C 9.488281 -155.660156 12.695312 -161.4375 17.3125 -166.375 C 21.9375 -171.3125 27.613281 -175.609375 34.34375 -179.265625 C 41.082031 -182.921875 48.492188 -185.195312 56.578125 -186.09375 C 64.660156 -187 73 -186.617188 81.59375 -184.953125 C 86.46875 -183.796875 90.828125 -182.125 94.671875 -179.9375 C 98.523438 -177.757812 101.640625 -175.578125 104.015625 -173.390625 C 106.390625 -171.210938 108.664062 -168.265625 110.84375 -164.546875 C 113.03125 -160.828125 114.664062 -157.679688 115.75 -155.109375 C 116.84375 -152.546875 118.285156 -148.828125 120.078125 -143.953125 C 121.878906 -139.078125 124.09375 -133.046875 126.71875 -125.859375 C 129.351562 -118.679688 131.597656 -112.523438 133.453125 -107.390625 C 135.316406 -102.253906 137.5 -96.382812 140 -89.78125 C 142.5 -83.175781 144.972656 -77.050781 147.421875 -71.40625 C 156.910156 -49.070312 163.769531 -37.007812 168 -35.21875 L 108.53125 -35.21875 C 110.332031 -36.757812 111.328125 -39.195312 111.515625 -42.53125 C 111.710938 -45.863281 111.457031 -48.878906 110.75 -51.578125 C 110.039062 -54.273438 108.851562 -58.1875 107.1875 -63.3125 C 107.0625 -63.832031 106.96875 -64.21875 106.90625 -64.46875 C 106.84375 -64.726562 106.742188 -65.050781 106.609375 -65.4375 C 106.484375 -65.820312 106.359375 -66.207031 106.234375 -66.59375 C 98.785156 -90.320312 88.195312 -119.507812 74.46875 -154.15625 C 74.46875 -154.28125 74.40625 -154.472656 74.28125 -154.734375 C 73 -157.804688 71.875 -160.335938 70.90625 -162.328125 C 69.945312 -164.316406 68.441406 -166.816406 66.390625 -169.828125 C 64.335938 -172.847656 61.867188 -174.9375 58.984375 -176.09375 C 56.097656 -177.25 52.921875 -177.3125 49.453125 -176.28125 C 42.398438 -174.363281 38.132812 -168.945312 36.65625 -160.03125 C 35.175781 -151.113281 37.738281 -142.738281 44.34375 -134.90625 C 50.957031 -127.082031 60.679688 -123.679688 73.515625 -124.703125 Z M 73.515625 -124.703125 "/></g></g></g><g fill="#e76f51" fill-opacity="1"><g transform="translate(263.778751, 284.732438)"><g><path d="M 24.046875 -34.0625 C 21.867188 -31.882812 19.238281 -30.796875 16.15625 -30.796875 C 13.082031 -30.796875 10.488281 -31.882812 8.375 -34.0625 C 6.257812 -36.238281 5.203125 -38.832031 5.203125 -41.84375 C 5.203125 -44.863281 6.257812 -47.460938 8.375 -49.640625 C 10.488281 -51.828125 13.082031 -52.921875 16.15625 -52.921875 C 19.238281 -52.921875 21.867188 -51.828125 24.046875 -49.640625 C 26.234375 -47.460938 27.328125 -44.863281 27.328125 -41.84375 C 27.328125 -38.832031 26.234375 -36.238281 24.046875 -34.0625 Z M 24.046875 -34.0625 "/></g></g></g></svg>